{
	"asset":{
		"generator":"Khronos glTF Blender I/O v4.1.63",
		"version":"2.0"
	},
	"scene":0,
	"scenes":[
		{
			"name":"Scene",
			"nodes":[
				0
			]
		}
	],
	"nodes":[
		{
			"mesh":0,
			"name":"Sphere"
		}
	],
	"materials":[
		{
			"doubleSided":true,
			"name":"Material",
			"pbrMetallicRoughness":{
				"baseColorTexture":{
					"index":0
				},
				"metallicFactor":0,
				"roughnessFactor":0.5
			}
		}
	],
	"meshes":[
		{
			"name":"Sphere",
			"primitives":[
				{
					"attributes":{
						"POSITION":0,
						"NORMAL":1,
						"TEXCOORD_0":2
					},
					"indices":3,
					"material":0
				}
			]
		}
	],
	"textures":[
		{
			"sampler":0,
			"source":0
		}
	],
	"images":[
		{
			"mimeType":"image/png",
			"name":"kepler2",
			"uri":"textures/kepler2.png"
		}
	],
	"accessors":[
		{
			"bufferView":0,
			"componentType":5126,
			"count":1104,
			"max":[
				0.9999998211860657,
				1,
				0.9999997019767761
			],
			"min":[
				-0.999999463558197,
				-1,
				-1
			],
			"type":"VEC3"
		},
		{
			"bufferView":1,
			"componentType":5126,
			"count":1104,
			"type":"VEC3"
		},
		{
			"bufferView":2,
			"componentType":5126,
			"count":1104,
			"type":"VEC2"
		},
		{
			"bufferView":3,
			"componentType":5123,
			"count":1584,
			"type":"SCALAR"
		}
	],
	"bufferViews":[
		{
			"buffer":0,
			"byteLength":13248,
			"byteOffset":0,
			"target":34962
		},
		{
			"buffer":0,
			"byteLength":13248,
			"byteOffset":13248,
			"target":34962
		},
		{
			"buffer":0,
			"byteLength":8832,
			"byteOffset":26496,
			"target":34962
		},
		{
			"buffer":0,
			"byteLength":3168,
			"byteOffset":35328,
			"target":34963
		}
	],
	"samplers":[
		{
			"magFilter":9729,
			"minFilter":9987
		}
	],
	"buffers":[
		{
			"byteLength":38496,
			"uri":"planeta2.bin"
		}
	]
}
